<svg width="9" height="7" viewBox="0 0 9 7" fill="none" xmlns="http://www.w3.org/2000/svg">
<path d="M8.67857 0H0.321429C0.143638 0 0 0.142187 0 0.318182V6.68182C0 6.85781 0.143638 7 0.321429 7H8.67857C8.85636 7 9 6.85781 9 6.68182V0.318182C9 0.142187 8.85636 0 8.67857 0ZM2.75223 1.43182C3.10681 1.43182 3.39509 1.71719 3.39509 2.06818C3.39509 2.41918 3.10681 2.70455 2.75223 2.70455C2.39766 2.70455 2.10937 2.41918 2.10937 2.06818C2.10937 1.71719 2.39766 1.43182 2.75223 1.43182ZM7.91417 5.77798C7.89954 5.79015 7.88105 5.79684 7.86194 5.79687H1.13705C1.09286 5.79687 1.0567 5.76108 1.0567 5.71733C1.0567 5.69844 1.06373 5.68054 1.07578 5.66562L2.78638 3.6571C2.81451 3.6233 2.86574 3.61932 2.89989 3.64716C2.9029 3.65014 2.90692 3.65312 2.90993 3.6571L3.90837 4.8304L5.49643 2.96605C5.52455 2.93224 5.57578 2.92827 5.60993 2.95611C5.61295 2.95909 5.61696 2.96207 5.61998 2.96605L7.92623 5.66662C7.95234 5.69943 7.94833 5.75014 7.91417 5.77798Z" fill="#FFFCE9"/>
</svg>
