<svg width="169" height="244" viewBox="0 0 169 244" fill="none" xmlns="http://www.w3.org/2000/svg">
<g clip-path="url(#clip0)">
<rect width="169" height="244" fill="#FFFCE9"/>
<path d="M94.5 157.5C94.5 195.332 76.1975 157.5 34.5 157.5C-7.1975 157.5 -77 203.831 -77 166C-77 128.168 -29.6975 58 12 58C53.6975 58 94.5 119.668 94.5 157.5Z" fill="#FEF2D8"/>
<path d="M112.5 237.536C112.5 269.844 70.7767 271.536 33.7737 271.536C-3.22943 271.536 -36 210.844 -36 178.536C-36 146.227 -10.7294 198.536 26.2737 198.536C63.2767 198.536 112.5 205.227 112.5 237.536Z" fill="#A5E3E2"/>
<path d="M203.363 72.7391C203.363 94.8305 218.455 152.256 196.363 152.256C174.272 152.256 123.363 94.8305 123.363 72.7391C123.363 50.6477 154.272 49.739 176.363 49.739C198.455 49.739 203.363 50.6477 203.363 72.7391Z" fill="#FBCD9E"/>
</g>
<defs>
<clipPath id="clip0">
<rect width="169" height="244" fill="white"/>
</clipPath>
</defs>
</svg>
